<svg width="1248" height="656" viewBox="0 0 1248 656" fill="none" xmlns="http://www.w3.org/2000/svg">
<path d="M579.659 654.86C574.964 654.382 574.04 653.768 571.808 649.328L570.576 646.938L562.725 646.869C558.03 646.869 554.182 646.528 553.181 646.05C552.258 645.572 547.947 640.722 543.637 635.327L535.709 625.423H523.24C508.924 625.423 509.001 625.423 507.538 619.959C506.999 618.047 506.307 616.339 505.922 616.203C505.614 615.998 504.151 617.159 502.766 618.73C499.61 622.35 499.071 622.691 497.532 622.008C496.839 621.667 492.683 612.446 487.911 600.494L479.444 579.594L473.825 573.652C468.976 568.529 468.284 567.436 468.668 565.797C468.899 564.773 468.899 563.953 468.591 563.953C468.284 563.953 463.511 565.182 458.047 566.753C448.579 569.417 447.579 569.554 441.806 569.144C434.109 568.666 433.185 567.983 434.417 563.885C435.264 561.016 435.264 560.88 433.108 559.309C428.952 556.304 426.797 555.62 422.871 556.099C420.331 556.372 419.023 556.235 418.484 555.621C418.022 555.142 417.253 550.84 416.714 546.195C416.175 541.482 415.405 537.111 415.021 536.497C414.636 535.814 411.095 534.379 406.708 533.15L399.088 530.964L394.624 532.672L390.159 534.448L378.229 533.355C369.454 532.603 365.375 532.467 362.527 533.013C357.37 533.969 333.433 530.759 325.505 528.096C320.579 526.456 320.04 526.388 319.193 527.413C318.27 528.574 318.347 529.188 321.194 536.223C323.427 541.756 323.273 543.463 320.81 543.463C319.732 543.463 317.5 542.848 315.884 542.097C314.19 541.346 311.65 540.731 310.111 540.731C307.571 540.731 307.417 540.868 306.647 543.6C304.877 549.952 304.954 549.883 301.182 550.293C299.335 550.43 297.796 550.976 297.95 551.386C298.027 551.796 299.797 554.459 301.952 557.328C304.107 560.197 305.878 563.065 305.878 563.748C305.878 565.456 298.411 572.832 296.718 572.832C296.025 572.832 293.716 571.739 291.638 570.442C287.328 567.71 285.865 567.505 283.941 569.417C281.786 571.466 280.478 571.125 275.628 567.163C271.703 564.021 271.087 563.202 270.394 559.923C270.01 557.943 269.471 556.03 269.163 555.621C268.701 554.938 265.007 555.142 261.389 556.099C259.619 556.577 259.542 556.508 254.077 550.703L252.23 548.654L245.533 550.088C237.759 551.659 236.451 551.249 234.911 546.878C234.065 544.214 233.988 544.146 230.524 544.283L227.061 544.488L225.983 539.707C223.135 526.525 223.828 527.891 219.594 526.251C215.746 524.817 215.284 524.271 214.822 519.9C214.668 517.987 214.438 517.851 211.974 517.987C210.435 518.124 208.511 518.329 207.587 518.534C205.355 518.943 203.508 517.236 203.508 514.777C203.508 513.684 203.123 512.728 202.661 512.591C202.199 512.455 197.273 513.001 191.654 513.821C186.113 514.641 179.647 515.528 177.338 515.87C173.259 516.416 173.105 516.553 171.873 519.353C170.103 523.724 169.102 524.339 165.023 523.656C160.944 522.973 160.174 522.154 158.942 517.168C158.404 515.119 157.634 513.206 157.249 513.001C156.864 512.796 154.016 513.821 150.938 515.255C145.627 517.714 145.319 517.987 145.088 520.446C144.934 522.836 144.472 523.315 139.469 526.115C136.544 527.822 133.927 529.598 133.773 530.076C133.542 530.554 133.696 531.784 134.158 532.74C134.774 534.174 134.697 535.199 133.85 537.043C132.08 540.731 132.388 541.619 136.082 544.146C138.161 545.444 139.854 547.288 140.239 548.517C141.239 551.318 142.009 564.09 141.316 565.046C141.008 565.456 139.7 566.207 138.468 566.753C137.16 567.3 136.159 568.051 136.236 568.461C136.313 568.802 136.621 569.827 136.852 570.783C137.776 574.403 137.006 574.54 123.767 573.242L111.606 572.081L107.604 574.54C105.371 575.837 101.215 577.886 98.2902 578.979L93.0563 580.96L92.9793 588.336C92.9024 592.366 92.8254 596.054 92.7484 596.532C92.6714 596.942 90.9011 599.333 88.823 601.791L84.9745 606.231V617.432C84.9745 625.56 84.6666 628.838 83.9739 629.316C82.6654 630.272 72.5823 632.253 68.8878 632.253C64.4236 632.253 63.423 630.614 63.423 623.647V618.047L59.1896 612.378C54.8793 606.504 54.3405 605.001 55.726 601.86C56.2648 600.425 56.1108 599.469 54.8023 597.215C52.6472 593.322 49.6454 589.907 48.4908 589.907C47.952 589.907 45.7199 589.429 43.6417 588.883C39.1775 587.721 39.2545 587.79 36.0217 577.613C34.1745 571.603 33.7127 570.851 30.172 568.051C27.863 566.207 24.2454 561.904 21.1666 557.465C16.6254 550.908 15.7017 549.952 13.0078 549.132C11.3145 548.586 9.46719 547.834 9.00538 547.356C8.46659 546.878 7.85083 542.848 7.54295 537.316C7.23507 532.194 6.54235 526.866 5.92659 525.364C2.38598 516.485 1.0775 512.318 0.153861 507.606L-0.769775 502.278L1.30841 500.707C4.23325 498.453 6.38841 498.59 8.85144 501.254L10.9296 503.439L14.0084 501.254C16.9333 499.136 17.3951 499.068 21.3975 499.478L25.7078 499.888V496.473C25.7078 491.76 26.6314 491.214 32.866 492.17C39.1005 493.126 38.9466 493.126 37.946 491.487C36.7914 489.574 37.5611 487.867 40.7169 485.408C45.1811 481.993 51.0308 482.608 56.6496 487.184C58.266 488.482 59.9593 489.506 60.3442 489.37C60.652 489.233 62.6533 487.184 64.6545 484.793C67.8872 480.969 68.9648 480.217 72.6593 479.125C74.9684 478.441 76.8927 477.895 76.9696 477.895C77.3545 477.827 78.8169 473.387 78.8169 472.226C78.8169 471.475 77.2775 468.675 75.3533 466.011C72.1975 461.503 71.8896 460.615 71.1969 454.468C70.7351 450.848 70.1963 447.57 69.9654 447.16C69.7345 446.819 67.7333 445.794 65.5011 444.906C62.1145 443.54 61.0369 442.584 58.5739 438.964C56.9575 436.574 55.726 434.32 55.726 433.91C55.726 433.568 56.4187 431.178 57.3424 428.582L59.0357 423.938L57.2654 418.952C56.3417 416.22 55.649 413.352 55.803 412.6C55.9569 411.917 57.4963 410.62 59.1896 409.868C61.4987 408.776 62.5763 407.751 63.5769 405.429C65.732 400.375 65.5011 400.033 60.806 400.033C55.9569 400.033 55.1102 399.35 54.8023 395.252C54.5714 392.384 54.3405 392.042 51.2617 390.813C47.6442 389.31 46.8745 388.217 48.106 386.237C50.723 381.797 59.0357 371.347 59.8823 371.347C61.2678 371.347 62.4223 372.645 63.0381 374.967C63.6539 377.153 65.732 378.314 68.503 378.041C70.5042 377.836 70.5042 377.699 70.6581 372.372C70.7351 368.205 71.3508 365.132 73.2751 359.736C75.7381 353.043 76.1999 352.291 80.8181 348.057C83.512 345.598 85.7442 342.934 85.7442 342.183C85.7442 341.5 83.8199 336.719 81.4339 331.665C75.892 319.849 76.123 320.669 78.2011 318.551C79.2017 317.458 82.2036 313.292 84.8975 309.126C90.2854 300.793 92.3636 298.949 96.212 298.949C98.4442 298.949 99.1369 298.471 101.985 294.783C105.141 290.89 105.525 290.616 111.067 289.114C114.3 288.226 118.841 287.065 121.304 286.587C125.691 285.767 125.768 285.767 132.311 288.363C135.928 289.729 139.007 290.753 139.238 290.616C139.392 290.412 138.853 288.363 138.007 286.04C136.544 282.284 136.467 281.669 137.468 280.303C138.314 279.142 138.391 278.459 137.776 277.571C136.082 275.249 138.084 274.839 150.476 274.976C160.251 275.044 164.33 274.771 173.874 273.268C180.186 272.312 185.728 271.219 186.113 270.878C186.498 270.536 187.421 266.985 188.191 262.955C188.961 258.925 189.884 255.374 190.269 255.032C190.654 254.691 192.655 254.076 194.733 253.598C198.428 252.778 198.505 252.642 202.353 246.426C206.048 240.279 206.356 239.938 212.128 236.864C218.44 233.449 221.904 229.898 227.291 221.155L230.062 216.716L236.528 215.418C240.145 214.735 243.224 214.052 243.378 213.916C243.532 213.779 244.379 210.774 245.148 207.29C245.918 203.807 246.765 200.392 246.996 199.709C247.534 198.275 250.536 196.841 257.31 194.792C262.236 193.357 262.697 193.289 273.165 194.177C279.092 194.655 284.634 195.065 285.557 195.065C288.482 195.133 289.714 196.909 289.714 201.144C289.714 205.242 288.79 206.744 286.404 206.744C284.403 206.744 284.942 208.11 290.176 217.194C294.255 224.297 294.409 224.844 295.41 233.245C296.025 238.026 297.18 243.694 298.104 245.948C298.95 248.134 299.643 251.071 299.643 252.437C299.643 257.081 296.795 271.014 295.717 271.971C294.563 272.995 283.556 275.727 280.478 275.727C276.475 275.727 267.085 271.834 264.391 269.102C257.387 261.999 252.691 253.12 250.69 243.285C249.459 236.933 248.766 235.977 247.073 238.299C245.918 239.801 245.918 240.621 246.919 247.041C247.611 251.003 248.073 254.759 248.073 255.374C248.15 256.057 246.149 257.833 243.609 259.472C241.146 261.111 236.913 264.799 234.219 267.736L229.37 273.132L231.14 280.713C233.603 291.368 234.45 292.461 238.067 289.114C239.53 287.68 239.607 287.202 238.914 285.972C237.913 284.401 238.452 277.503 239.684 274.566C240.453 272.722 248.381 270.195 249.69 271.356C250.151 271.766 250.844 275.112 251.306 278.801C252.076 285.016 252.384 285.767 254.924 288.431C258.387 292.187 259.465 292.529 260.542 290.207C264.776 281.191 264.468 281.533 269.394 280.372C272.627 279.62 276.244 279.415 282.017 279.62C293.562 279.962 292.947 279.757 295.41 285.221C297.796 290.753 298.488 290.958 303.184 288.089L306.262 286.177L305.954 281.259L305.724 276.41L310.573 274.361C317.192 271.697 320.502 268.078 321.194 262.818C321.81 257.696 323.35 257.491 329.122 261.657C333.279 264.731 333.971 265.824 336.511 272.722C337.358 275.112 336.358 277.435 332.971 280.781C330.893 282.899 330.662 282.899 326.351 281.055C323.273 279.757 322.657 279.689 320.425 280.508L317.962 281.396L318.501 285.494C319.193 290.821 319.732 291.709 323.273 292.597C326.121 293.417 326.198 293.417 330.662 289.66L335.126 285.836L359.525 286.109C385.156 286.382 388.235 286.723 388.235 289.319C388.235 290.343 386.927 291.3 383.771 292.734C381.308 293.827 378.691 295.193 377.844 295.739C376.305 296.764 376.305 296.832 377.998 298.334C379.614 299.769 379.922 299.837 383.001 299.017C389.082 297.378 391.16 297.378 395.701 298.881C399.319 300.042 401.551 300.247 407.478 300.11L414.79 299.974V303.32C414.79 307.623 416.175 308.579 419.87 306.667C422.41 305.369 422.487 305.233 422.564 300.588C422.641 294.168 422.487 294.51 425.873 293.144L428.875 291.914L437.419 296.285L445.962 300.588L456.507 314.795C462.28 322.581 467.283 329.001 467.591 329.001C467.822 329.001 468.668 328.182 469.361 327.225C470.593 325.586 470.593 325.381 469.361 323.742C468.438 322.376 468.207 321.147 468.591 318.141L469.13 314.248L465.974 311.994C462.28 309.399 462.049 307.828 465.128 305.642C467.36 304.003 471.362 297.788 471.362 295.876C471.362 295.261 470.978 294.236 470.439 293.553C469.823 292.665 469.9 291.436 470.901 288.499C472.132 284.674 472.286 284.538 478.674 281.055C484.678 277.844 485.91 276.752 491.836 269.717C495.377 265.482 498.764 261.794 499.302 261.657C499.841 261.452 503.921 262.477 508.308 263.911C513.927 265.755 516.39 266.916 516.621 267.736C516.774 268.419 516.467 271.014 516.005 273.542C515.235 277.708 514.619 278.732 510.001 283.855L504.921 289.524L506.307 294.51L507.769 299.495L505.691 304.345C504.613 307.077 503.613 310.082 503.613 311.107C503.613 312.131 502.458 315.956 500.919 319.712C499.456 323.401 498.302 327.02 498.302 327.703C498.302 328.386 499.148 330.914 500.303 333.304L502.304 337.675L499.302 343.003C497.686 345.871 494.607 349.901 492.529 351.813C490.374 353.794 487.218 356.867 485.525 358.575C482.6 361.58 482.138 361.785 478.597 361.785C476.519 361.785 472.902 361.307 470.593 360.761C468.284 360.214 466.282 359.873 466.128 360.009C466.051 360.078 467.591 361.58 469.669 363.288C474.903 367.591 478.674 368.137 485.679 365.542C489.219 364.176 491.451 362.81 493.453 360.624C494.992 358.917 497.84 356.594 499.764 355.501C505.152 352.291 505.229 352.155 505.229 343.276V335.216L509.462 333.782C514.465 332.143 516.62 332.075 520.161 333.372C522.855 334.397 523.933 336.446 525.626 343.822C525.934 345.461 526.55 346.076 527.704 346.076C529.09 346.076 529.244 345.803 528.782 342.866C528.474 341.159 528.32 339.178 528.32 338.495C528.32 337.539 523.779 333.987 519.161 331.46C518.545 331.118 515.697 330.64 512.772 330.367C509.847 330.026 506.999 329.411 506.384 329.001C505.46 328.318 505.229 326.611 505.229 322.308C505.229 316.57 505.229 316.366 508.693 311.448L512.233 306.394L510.309 299.222C508.924 294.1 508.539 291.504 509.078 290.343C509.847 288.636 515.389 283.445 520.161 280.167C522.778 278.323 523.163 277.708 523.471 274.361C523.779 272.039 524.394 270.263 525.164 269.785C526.934 268.556 531.091 268.692 531.707 269.99C532.861 272.79 532.014 278.391 529.398 284.948C525.087 295.466 525.01 294.715 531.399 297.788C534.401 299.222 537.094 300.247 537.325 299.974C537.633 299.769 535.863 297.788 533.554 295.671C531.168 293.485 529.09 291.231 528.782 290.548C528.089 288.704 531.014 283.991 533.246 283.513C534.324 283.308 535.555 283.308 536.094 283.582C536.787 283.991 536.864 283.786 536.402 282.83C534.478 278.869 534.862 278.186 539.711 276.137C542.251 275.044 544.868 274.361 545.561 274.566C546.254 274.839 547.331 276.069 547.947 277.298C548.486 278.596 549.641 279.757 550.487 279.962C551.257 280.167 553.72 282.284 555.952 284.674C563.649 292.939 563.803 293.075 564.573 291.914C565.496 290.412 564.496 288.363 560.339 283.445C558.415 281.191 556.722 278.732 556.568 277.981C556.183 275.249 557.722 264.116 558.646 263.023C559.416 262.067 562.495 261.589 574.887 260.565C583.276 259.882 590.357 259.13 590.588 258.925C590.742 258.72 590.358 257.15 589.665 255.442C588.356 252.368 588.356 252.232 589.896 249.91C592.359 246.153 599.44 238.026 602.288 235.635C603.75 234.474 608.676 232.015 613.294 230.171C619.452 227.781 622.069 226.346 622.916 224.98C623.762 223.751 626.071 222.385 630.459 220.609C637.309 217.945 638.464 218.014 639.464 221.429C640.08 223.546 641.158 223.546 646.468 221.224C650.702 219.38 650.702 219.38 650.24 216.921C649.701 214.052 650.548 213.233 654.781 212.55L657.783 212.072L657.244 207.905L656.782 203.671L661.401 197.387C667.712 188.713 671.022 187.484 679.334 190.557C682.644 191.786 683.029 193.357 680.72 195.953C678.565 198.343 678.719 198.548 682.105 198.548C685.415 198.548 686.878 199.504 686.878 201.758C686.878 203.739 687.185 203.739 690.726 201.28C693.497 199.299 693.882 199.231 701.733 199.231H709.815L715.433 203.397C718.589 205.651 721.591 208.52 722.13 209.681C722.822 211.047 723.207 214.53 723.284 219.38C723.284 227.781 723.207 228.122 716.588 236.796C714.433 239.596 710.738 244.992 708.429 248.749C706.043 252.505 703.118 257.013 701.964 258.789L699.808 262.067H701.579C702.887 262.067 705.966 259.95 711.508 255.305C720.051 248.066 726.902 243.626 729.211 243.626C730.058 243.626 731.289 244.377 731.982 245.334C733.521 247.451 734.368 247.451 735.445 245.334C735.984 244.309 737.601 243.216 739.525 242.602C745.682 240.689 757.536 238.162 758.767 238.572C759.537 238.845 759.999 239.801 759.999 241.167C759.999 243.49 761.153 244.992 763.001 244.992C764.463 244.992 780.704 239.118 781.704 238.23C782.166 237.821 781.781 236.318 780.858 234.406C778.779 230.308 778.779 229.078 780.858 225.8L782.551 223.136H789.247C795.713 223.136 795.944 223.068 799.099 220.609C801.639 218.697 802.717 218.287 803.872 218.765C805.103 219.243 812.8 225.117 824.422 234.406C827.039 236.455 827.347 238.845 824.961 238.845C823.268 238.845 823.653 239.938 825.885 241.509C828.579 243.421 844.665 247.997 844.588 246.836C844.588 246.768 843.28 243.011 841.587 238.504C839.355 232.493 838.816 230.103 839.431 229.42C840.047 228.805 842.356 228.6 847.898 228.737L855.595 228.942L856.904 225.527C858.366 221.702 860.367 220.404 864.754 220.404C867.218 220.404 868.295 219.789 871.913 216.579C874.299 214.462 876.146 212.55 876.146 212.345C876.146 212.072 874.068 210.569 871.528 208.93C868.988 207.359 866.91 205.515 866.91 204.832C866.91 204.217 866.602 201.485 866.217 198.89C865.909 196.226 865.909 193.562 866.294 192.948C866.679 192.265 869.681 190.42 872.913 188.781C891.232 179.561 897.544 176.009 901.084 173.209C906.472 168.906 907.627 168.496 913.399 168.496C919.326 168.496 920.865 169.452 919.48 172.594C919.018 173.755 918.864 174.711 919.172 174.848C919.634 175.121 937.337 171.774 939.569 171.023C940.185 170.818 943.648 165.423 947.266 159.139L953.808 147.596L960.736 144.386L967.663 141.108L972.897 141.859C977.361 142.474 978.593 142.952 981.056 145.069L983.904 147.596L987.213 145.547C989.984 143.771 990.754 142.747 992.447 138.376C994.756 132.365 994.295 133.117 1001.68 124.101C1006.38 118.432 1007.69 116.247 1008.15 113.72C1008.46 111.944 1009.07 110.236 1009.61 109.895C1010.07 109.485 1014.15 109.007 1018.69 108.734C1023.16 108.46 1027.16 108.051 1027.62 107.777C1028.78 107.094 1029.32 102.518 1028.39 101.63C1027.93 101.221 1025.39 100.879 1022.77 100.879C1018.39 100.879 1017.69 100.674 1014.61 98.4203C1012.77 97.0543 1011 95.4151 1010.61 94.6638C1010.07 93.7076 1011.84 90.4975 1018.16 80.594C1027.39 66.0461 1028.93 64.5435 1046.63 52.1812C1060.72 42.4143 1086.2 27.1151 1088.58 27.1151C1089.58 27.1151 1092.66 27.7298 1095.43 28.5494C1098.9 29.6422 1100.67 29.8471 1101.59 29.369C1103.98 28.0713 1103.28 27.32 1099.36 26.8419C1097.2 26.637 1094.89 26.0906 1094.36 25.6808C1092.58 24.3831 1093.05 21.3779 1095.2 19.6021C1096.28 18.7142 1097.43 16.7335 1097.9 15.1626C1099.51 9.56201 1100.13 8.879 1107.9 4.3029C1112.14 1.7758 1116.29 -0.136597 1117.22 -0.136597C1118.14 -0.136597 1120.76 1.0245 1122.99 2.5271C1127.61 5.6006 1127.84 6.2153 1125.99 12.4989C1125.3 14.6162 1124.99 16.5286 1125.14 16.7335C1125.37 16.9384 1129.61 17.6214 1134.53 18.3727C1146.46 20.1485 1146.85 20.2851 1147.93 23.8367C1148.77 26.4321 1148.7 27.0468 1147 29.7788C1145.54 32.3742 1144.69 32.9889 1142 33.5353C1139.38 34.15 1138.23 35.0379 1135.07 38.7261C1131.45 43.029 1131.22 43.1656 1127.3 43.5071C1121.53 43.9852 1119.6 45.9659 1118.52 52.0446C1118.06 54.64 1117.37 57.2354 1116.91 57.7135C1116.29 58.3965 1114.6 58.4648 1110.13 58.1233C1103.67 57.6452 1102.82 57.9867 1103.98 60.787C1104.59 62.2213 1105.36 62.5628 1108.75 62.9043C1121.76 64.3386 1121.29 63.9971 1124.07 74.1055L1125.84 80.3891L1123.3 83.1894C1121.29 85.4433 1120.99 86.1263 1121.83 86.6044C1123.37 87.4923 1123.45 87.424 1128.53 84.4188C1133.84 81.277 1134.23 81.2087 1140.61 82.3698C1144.85 83.1894 1145.62 83.1211 1150.85 81.5502C1154.01 80.594 1157.16 79.9793 1157.93 80.1842C1159.55 80.5257 1167.17 86.3995 1167.17 87.2874C1167.17 87.6289 1164.55 90.3609 1161.4 93.3661C1158.16 96.3713 1155.62 99.4448 1155.62 100.196C1155.62 101.562 1161.09 120.754 1164.78 132.639C1171.25 152.924 1172.63 156.475 1175.71 160.3C1177.48 162.622 1178.56 164.603 1178.25 165.218C1177.87 166.106 1166.63 169.862 1164.24 169.862C1162.55 169.862 1161.78 171.911 1160.93 178.058L1160.09 184.547L1162.47 189.123C1163.78 191.65 1164.86 194.177 1164.86 194.792C1164.86 196.567 1162.55 196.772 1159.39 195.133C1157.7 194.314 1156.01 193.767 1155.62 193.835C1155.24 193.972 1155.55 195.406 1156.39 197.046C1158.47 201.144 1158.32 202.51 1155.16 205.993C1153.7 207.632 1152.54 209.34 1152.54 209.749C1152.54 210.227 1154.39 213.164 1156.7 216.306C1159.01 219.516 1162.63 224.57 1164.78 227.644C1166.94 230.717 1169.17 233.586 1169.79 233.996C1171.32 235.157 1172.63 234.269 1172.09 232.425C1171.56 230.512 1172.71 229.625 1177.02 228.6C1181.72 227.507 1183.33 228.054 1185.87 231.674C1189.03 236.045 1193.8 238.162 1200.96 238.162C1205.65 238.162 1206.35 238.299 1206.81 239.528C1207.42 241.236 1206.5 246.358 1205.42 247.588C1204.5 248.544 1206.81 256.125 1208.27 257.15C1208.73 257.491 1211.58 258.311 1214.74 258.994C1221.12 260.36 1222.12 261.247 1222.89 266.575C1223.43 269.853 1223.28 270.263 1221.05 272.517C1218.89 274.703 1218.66 275.317 1218.89 278.596L1219.12 282.147L1224.51 285.426C1227.44 287.202 1230.28 289.182 1230.82 289.797C1231.44 290.616 1231.82 293.553 1231.82 298.334V305.711L1235.67 309.604C1237.83 311.79 1240.52 315.136 1241.75 316.98C1244.14 320.805 1248.29 335.216 1247.52 337.265C1246.52 340.202 1242.91 338.905 1208.04 323.401L1173.86 308.17L1165.71 300.247L1157.47 292.392L1156.01 286.04C1154.62 279.757 1154.55 279.62 1150.93 277.161C1146.69 274.293 1146.46 273.61 1148.46 267.053L1149.77 262.682L1146.62 254.349C1144.85 249.773 1141.23 240.621 1138.61 234.064C1132.69 219.038 1132.61 218.97 1131.84 209.271C1131.07 199.914 1131.38 200.256 1121.37 194.04C1114.44 189.737 1113.83 188.85 1115.98 185.571C1117.22 183.522 1117.45 181.883 1116.29 182.498C1115.14 183.112 1111.67 189.396 1111.75 190.83C1111.83 191.513 1114.29 193.835 1117.22 196.021L1122.6 200.051L1122.14 203.193C1121.76 205.378 1122.22 209.135 1123.6 215.145C1125.76 224.844 1125.99 226.893 1124.76 227.576C1124.3 227.849 1121.6 227.849 1118.83 227.576C1114.14 227.098 1113.52 226.824 1109.83 223.751C1105.13 219.858 1105.9 219.516 1099.51 228.054C1097.36 230.991 1095.59 234.132 1095.59 235.089C1095.59 237.821 1105.59 266.233 1107.36 268.692C1109.29 271.288 1109.6 271.356 1112.44 269.512C1115.14 267.736 1116.91 268.351 1119.06 271.902C1120.68 274.634 1121.06 273.951 1114.6 280.713C1112.29 283.104 1111.21 285.153 1109.75 290.138C1105.44 304.345 1106.13 303.594 1098.59 302.364C1093.82 301.545 1093.12 300.862 1094.12 298.061C1094.43 296.9 1094.59 295.807 1094.43 295.671C1094.2 295.466 1090.89 296.968 1087.04 299.017C1082.19 301.544 1080.19 302.979 1080.42 303.73C1080.65 304.277 1081.42 306.121 1082.19 307.828C1083.89 311.79 1083.35 313.019 1079.5 314.043C1076.58 314.795 1076.34 315 1076.19 317.663C1075.96 320.395 1075.88 320.464 1071.5 321.83C1067.26 323.059 1067.11 323.264 1066.95 325.586C1066.95 326.884 1066.95 328.181 1066.95 328.455C1067.03 328.66 1065.18 329.343 1062.95 329.957C1059.1 330.914 1058.41 331.528 1051.02 339.383C1046.71 344.027 1043.25 348.398 1043.25 349.15C1043.25 349.901 1043.79 351.267 1044.4 352.223C1045.94 354.682 1045.79 357.072 1043.63 362.127L1041.71 366.566L1044.56 370.664L1047.33 374.83L1044.79 383.505L1042.32 392.179L1043.56 401.877L1044.86 411.644L1042.17 422.709C1038.24 438.554 1038.24 438.964 1039.55 438.964C1040.17 438.964 1043.09 437.393 1046.17 435.549C1049.17 433.637 1052.02 432.134 1052.56 432.134C1053.1 432.134 1054.25 432.749 1055.18 433.5C1056.79 434.866 1056.95 434.866 1061.8 433.705C1064.57 433.09 1067.26 432.749 1067.95 432.954C1068.57 433.159 1069.49 434.661 1070.03 436.232C1071.03 438.964 1071.11 439.032 1072.5 437.871C1074.5 436.3 1074.42 435.071 1072.11 431.793C1069.34 427.831 1069.65 426.602 1073.88 423.05C1078.27 419.43 1081.81 418.542 1086.89 419.703C1088.74 420.182 1093.66 420.523 1097.9 420.523H1105.59V418.406C1105.59 417.245 1106.05 415.469 1106.75 414.376C1108.29 411.644 1107.52 410.483 1103.21 409.185C1096.74 407.273 1096.05 403.311 1101.51 399.555C1103.36 398.326 1105.28 397.506 1105.82 397.643C1106.36 397.848 1108.29 399.692 1110.21 401.809C1112.06 403.926 1117.37 408.571 1121.83 412.054C1126.61 415.742 1130.68 419.567 1131.45 421.001C1132.99 423.802 1132.69 423.597 1156.01 435.003C1179.71 446.614 1181.87 447.843 1181.64 449.414C1181.41 450.37 1179.79 451.326 1175.64 452.897C1172.4 454.058 1169.79 455.493 1169.63 456.039C1169.55 456.586 1171.48 461.162 1174.02 466.284C1177.41 473.114 1179.1 475.846 1180.79 476.871C1182.02 477.622 1188.1 479.739 1194.26 481.515C1205.19 484.657 1205.65 484.93 1208.66 488.072C1211.73 491.35 1212.5 493.126 1211.04 493.946C1210.66 494.151 1207.35 493.946 1203.65 493.536C1200.03 493.126 1196.88 492.921 1196.57 493.194C1196.34 493.399 1197.26 495.653 1198.57 498.249C1201.11 503.098 1201.57 505.488 1200.19 506.24C1199.34 506.718 1189.64 502.551 1185.95 500.024C1182.72 497.907 1174.17 487.594 1170.63 481.447C1168.17 477.28 1167.25 476.324 1164.47 475.231C1161.93 474.207 1158.93 471.407 1149.62 461.435C1132.92 443.335 1133.69 443.95 1126.84 441.355L1120.76 439.032L1121.22 442.174C1122.06 447.638 1127.84 457.064 1134.69 464.235C1138.3 467.923 1143.23 474.207 1146.31 478.92L1151.54 487.116L1152.47 500.434C1153.08 510.474 1153.78 515.392 1155.24 520.583C1157.16 527.208 1157.24 528.301 1157.7 555.757L1158.09 584.17L1154.85 590.59C1153.08 594.142 1150.54 599.059 1149.23 601.518L1146.77 605.958L1137.92 608.348C1132.99 609.714 1128.53 610.943 1127.99 611.08C1127.3 611.353 1126.76 613.266 1126.37 616.544C1125.6 622.691 1122.45 629.521 1120.29 629.521C1119.52 629.521 1117.91 629.18 1116.68 628.838C1115.44 628.497 1112.98 627.882 1111.21 627.472C1106.82 626.516 1106.59 625.218 1110.06 622.145C1111.67 620.779 1113.75 618.183 1114.68 616.408L1116.45 613.197L1112.06 607.05C1108.98 602.611 1106.36 599.879 1102.82 597.352C1100.13 595.371 1097.74 593.39 1097.59 592.912C1097.36 592.434 1098.2 589.224 1099.51 585.809C1102.13 578.843 1102.44 578.638 1109.75 577.818C1115.6 577.272 1115.98 576.93 1114.98 573.379C1114.52 571.739 1113.91 567.641 1113.75 564.295C1113.37 558.831 1112.9 557.191 1109.44 549.952C1105.98 542.712 1105.59 541.346 1105.98 538.545C1106.44 535.745 1106.13 534.994 1103.51 531.237C1101.9 528.915 1100.36 527.071 1100.05 527.071C1099.51 527.071 1091.35 538.272 1089.28 541.961C1088.51 543.327 1085.35 546.878 1082.19 549.747L1076.65 555.074H1072.34H1068.11L1062.1 549.2C1057.33 544.556 1055.79 543.463 1054.56 543.805C1053.71 544.078 1049.79 543.873 1045.94 543.395C1038.94 542.575 1038.71 542.575 1033.86 544.283C1031.16 545.239 1026.62 546.537 1023.7 547.151C1018.85 548.244 1018.31 548.244 1016.54 547.22C1014.85 546.195 1003.92 537.521 983.288 520.719C979.208 517.372 975.052 514.367 974.051 514.026C971.358 513.07 967.586 513.275 965.585 514.504C964.122 515.392 962.583 515.528 956.195 515.119L948.575 514.641L943.341 517.509C931.564 524.066 924.714 530.554 924.714 534.994C924.714 535.609 926.946 538.204 929.717 540.799C932.411 543.395 934.72 546.127 934.72 546.878C934.72 547.629 933.796 549.815 932.796 551.659C930.948 554.733 930.871 555.757 930.871 564.5V574.062L933.488 576.862C934.951 578.433 935.952 580.072 935.798 580.55C935.567 581.028 933.565 582.258 931.333 583.214C927.716 584.785 927.023 585.399 925.484 588.746C923.559 592.912 922.636 593.459 915.016 594.62C911.244 595.234 909.628 595.166 906.241 594.278L902.085 593.185L898.929 596.259C895.388 599.674 895.773 599.606 887.537 597.42C885.921 597.01 883.15 596.737 881.38 596.874C877.839 597.079 877.531 597.42 871.297 606.914C869.296 609.919 867.064 611.763 858.905 617.091L848.899 623.579L835.044 625.15C815.648 627.336 815.186 627.267 811.107 624.262C804.025 619.14 782.397 617.364 776.008 621.393C774.546 622.281 771.929 623.989 770.082 625.218C768.311 626.448 766.156 627.472 765.387 627.472C764.617 627.472 760.076 626.652 755.227 625.696C749.223 624.535 746.067 623.579 745.221 622.691C744.528 621.94 743.219 619.208 742.296 616.544C741.449 613.949 740.448 611.626 740.064 611.49C739.063 610.875 711.277 605.616 709.43 605.616C708.198 605.616 706.351 607.324 702.502 611.9C699.655 615.383 697.345 618.661 697.422 619.276C697.499 619.823 698.885 623.442 700.578 627.336C702.271 631.16 703.503 634.849 703.272 635.395C703.041 635.941 700.424 637.444 697.576 638.742L692.265 641.132H676.102C660.169 641.132 659.938 641.064 658.861 639.561C658.245 638.742 657.552 637.034 657.244 635.873C656.936 634.644 656.321 633.346 655.705 632.936C655.166 632.595 650.471 631.57 645.237 630.819L635.693 629.384L621.992 635.395C609.061 641.132 608.291 641.542 607.83 643.659C607.599 644.889 607.06 646.05 606.675 646.323C606.29 646.528 602.673 647.416 598.516 648.304C591.435 649.806 588.587 651.24 587.433 653.972C586.971 654.997 584.431 655.27 579.659 654.86ZM1110.98 429.061C1110.98 428.856 1110.06 427.421 1108.9 425.919C1107.21 423.665 1106.75 423.323 1106.13 424.211C1105.21 425.782 1106.05 427.695 1108.06 428.582C1110.06 429.402 1110.98 429.539 1110.98 429.061ZM551.719 285.289C550.564 284.128 549.179 283.24 548.794 283.24C548.332 283.24 549.179 284.265 550.564 285.631C552.027 286.928 553.335 287.816 553.566 287.611C553.797 287.475 552.95 286.382 551.719 285.289ZM528.32 276.752C528.397 276 528.397 274.771 528.32 274.02C528.166 272.654 528.166 272.654 527.55 274.02C526.627 275.864 526.55 280.508 527.473 279.142C527.858 278.527 528.243 277.503 528.32 276.752ZM17.472 298.061C13.7005 294.373 -7.83801e-05 276.615 -7.83801e-05 275.386C-7.83801e-05 274.156 0.538709 273.951 6.08053 273.473C13.8545 272.79 15.3169 273.132 17.3951 276.069C19.4733 278.869 19.7042 278.869 22.552 276.957C23.7836 276.205 25.323 275.659 25.8617 275.864C26.9393 276.273 29.1714 281.942 32.3272 291.914C33.2508 294.919 33.4048 296.49 32.866 296.968C31.9423 297.788 23.8605 299.564 21.0126 299.564C19.8581 299.632 18.3187 298.949 17.472 298.061ZM406.862 270.946C402.09 267.736 399.781 265.619 399.396 264.321C399.088 263.297 398.01 258.857 397.01 254.418C395.316 246.836 395.239 246.222 396.394 242.807C397.933 238.162 398.318 237.752 402.705 236.455C405.476 235.635 407.939 233.928 413.25 229.283C418.946 224.161 420.485 223.136 422.487 223.136C424.411 223.136 425.334 222.521 427.259 220.199C428.721 218.423 433.878 214.462 440.113 210.432C445.885 206.676 451.966 202.783 453.582 201.69C457.277 199.299 467.437 197.592 487.141 196.158C495.454 195.543 501.996 194.723 505.229 193.835C511.233 192.128 513.542 192.06 515.851 193.494C517.467 194.518 517.621 194.997 517.313 198.343C517.005 201.553 516.621 202.373 513.696 205.037C511.848 206.676 509.462 208.178 508.308 208.383C505.768 208.93 496.839 209.954 487.141 210.842C479.213 211.593 475.134 213.096 466.205 218.423C464.435 219.516 460.433 221.36 457.354 222.658C454.198 223.956 448.81 227.029 445.193 229.693C441.575 232.288 436.88 235.567 434.802 236.933C431.03 239.323 424.18 245.812 420.716 250.183C419.254 252.027 419.023 253.256 419.023 258.652C419.023 262.135 419.408 266.985 419.87 269.375C420.87 274.498 420.178 275.727 416.252 275.727C414.328 275.727 412.173 274.634 406.862 270.946ZM854.825 190.557C853.902 189.054 852.978 179.697 853.594 178.331C853.825 177.785 854.364 177.375 854.671 177.375C855.056 177.375 856.673 176.556 858.289 175.599C860.752 174.028 861.83 173.824 865.832 174.097C870.989 174.37 875.453 176.487 875.453 178.741C875.453 179.971 859.598 190.898 856.827 191.513C856.134 191.718 855.21 191.308 854.825 190.557ZM646.853 189.669C646.007 189.191 645.93 187.893 646.622 182.361C647.084 178.673 647.315 175.531 647.161 175.394C647.084 175.326 646.237 175.531 645.391 175.941C644.159 176.556 641.927 176.351 635.616 175.053C631.151 174.097 627.072 173.004 626.456 172.594C624.532 171.228 621.992 162.691 622.531 159.685C622.993 157.432 622.839 156.749 621.838 156.475C621.222 156.202 620.684 155.656 620.684 155.178C620.684 154.631 619.452 152.992 617.99 151.421C616.45 149.85 615.296 148.416 615.296 148.211C615.296 146.982 618.605 136.463 619.452 135.029C621.145 132.297 626.456 127.994 627.996 128.267C628.688 128.404 631.151 131.204 633.384 134.551C637.001 139.81 637.54 141.108 637.771 144.728C638.002 149.099 638.387 149.577 642.543 150.397C643.774 150.602 645.93 151.831 647.315 153.06C649.624 155.109 649.932 155.792 649.932 159.207C649.932 161.393 650.24 163.032 650.702 163.032C651.164 163.032 652.78 162.212 654.319 161.325C658.014 159.071 658.707 159.139 660.554 161.939C661.708 163.715 662.478 164.193 663.71 163.92C664.556 163.715 665.788 163.92 666.481 164.398C667.943 165.491 673.793 176.419 673.793 178.126C673.793 179.697 673.408 179.902 661.862 184.615C648.008 190.284 648.008 190.284 646.853 189.669ZM825.885 175.326C822.96 174.643 820.266 173.755 819.804 173.345C819.342 172.936 818.419 169.93 817.649 166.652C816.879 163.305 816.033 159.685 815.802 158.524C815.417 156.953 815.571 156.066 816.648 155.178C817.803 154.153 818.88 154.017 823.345 154.358L828.656 154.768L828.117 152.582C826.885 147.733 826.885 147.665 831.965 147.255C834.505 146.982 838.739 146.025 841.356 145.001C843.973 144.045 846.59 143.225 847.205 143.225C850.9 143.225 854.287 152.65 852.516 157.978C851.439 161.12 841.818 172.458 838.2 174.985C835.198 176.965 833.12 177.034 825.885 175.326ZM855.98 149.167C854.21 147.869 850.669 142.542 850.977 141.449C851.054 140.903 855.826 138.512 861.522 136.054C872.528 131.341 876.993 130.453 878.378 132.775C879.225 134.21 877.301 144.523 875.915 145.752C875.376 146.23 871.682 147.255 867.679 148.006C863.677 148.757 859.674 149.509 858.828 149.714C857.904 149.85 856.673 149.645 855.98 149.167ZM1010.38 48.7662C1005.3 43.9169 1004.76 42.8924 1004.76 38.3163C1004.76 33.1938 1005.22 31.8961 1007.15 31.8961C1007.92 31.8961 1010.54 30.6667 1013 29.1641C1018.16 25.954 1019.85 25.7491 1020.93 28.1396C1022.77 32.4425 1020.77 47.6051 1018.08 49.9956C1016.15 51.7031 1012.92 51.225 1010.38 48.7662Z" fill="#75B4F7"/>
</svg>
