<svg width="296" height="57" viewBox="0 0 296 57" fill="none" xmlns="http://www.w3.org/2000/svg">
<path fill-rule="evenodd" clip-rule="evenodd" d="M0 0H64.0758V57H0V0ZM7.11954 49V7H55.9392V49H36.6148V39H26.444V49H7.11954ZM176.971 43C173.67 42.9295 170.827 42.0456 168.835 40C166.843 37.9544 166.045 35.4282 165.783 32C165.638 30.307 165.362 28.2855 165.783 26C166.205 23.7003 167.758 21.9327 168.835 20C169.911 18.0672 171.289 16.2838 172.903 15C175.608 12.8415 178.538 11.9295 182.057 12C184.223 12.0424 185.528 12.0689 187.142 13C188.771 13.917 190.237 15.2647 191.21 17C192.185 18.7353 193.085 20.7851 193.245 23C193.361 24.5659 193.565 25.9966 193.245 28C192.94 29.9892 192.054 32.18 191.21 34C190.382 35.8058 189.482 37.6175 188.159 39C186.835 40.3826 184.877 41.1818 183.074 42C181.286 42.8041 179.211 43.0423 176.971 43ZM185.108 23C184.963 19.473 183.716 17.1411 181.04 17C178.974 16.9012 177.307 18.307 175.954 20C174.602 21.6788 174.356 23.7129 173.92 27C173.644 29.0315 172.83 30.8855 172.903 32C173.048 35.5834 175.284 36.9013 177.988 37C179.762 37.0847 180.776 37.312 182.057 36C183.336 34.6738 184.541 32.5112 185.108 30C185.676 27.4747 185.195 25.1303 185.108 23ZM107.81 43H114.93L120.015 12H94.5881L88.4857 43H96.6223L100.691 18H111.878L107.81 43ZM157.647 12H150.527L136.288 31L139.339 12H132.22L126.118 43H134.254L148.493 24L144.425 43H152.561L157.647 12ZM218.671 43H225.791L231.893 12H223.757L221.723 24H211.552L213.586 12H205.449L200.364 43H207.484L210.535 30H220.706L218.671 43ZM258.337 30H247.15L246.133 37H259.355L258.337 43H236.979L243.081 12H264.44L263.423 18H249.184L248.167 24H259.355L258.337 30ZM275.628 43L277.662 32H282.747C285.175 32 286.901 31.8041 288.85 31C290.813 30.1959 292.743 29.5236 293.935 28C295.128 26.4763 295.795 24.0739 295.969 22C296.216 18.9668 294.955 16.9046 292.918 15C290.898 13.0954 288.316 12 284.781 12H273.594L268.508 43H275.628ZM282.747 27H278.679L279.696 18H284.781C285.698 18.0564 287.28 18.492 287.833 19C288.4 19.4938 288.733 20.1394 288.85 21C289.053 22.6788 287.82 23.8431 286.816 25C285.812 26.1428 284.638 26.9576 282.747 27Z" fill="#2F55B6"/>
</svg>
