<svg width="187" height="30" viewBox="0 0 187 30" fill="none" xmlns="http://www.w3.org/2000/svg">
<path fill-rule="evenodd" clip-rule="evenodd" d="M0 0H41.0223V30H0V0ZM4.55803 26.1538V3.84615H35.5526V26.1538H23.7018V20.7692H17.3205V26.1538H4.55803ZM112.128 23.0769C110.037 23.039 107.92 22.6391 106.658 21.5385C105.396 20.4378 105.001 18.7676 104.835 16.9231C104.743 16.0122 104.568 15.0758 104.835 13.8462C105.102 12.6088 105.976 11.8091 106.658 10.7692C107.34 9.72928 108.37 8.38306 109.393 7.69231C111.106 6.53094 112.634 6.1159 114.862 6.15385C116.235 6.17663 117.486 6.4221 118.509 6.92308C119.54 7.41647 120.627 8.29713 121.244 9.23077C121.861 10.1644 122.054 11.116 122.155 12.3077C122.229 13.1502 122.358 14.3067 122.155 15.3846C121.962 16.4549 121.778 17.4823 121.244 18.4615C120.719 19.4331 119.347 20.0254 118.509 20.7692C117.67 21.5131 116.916 21.8675 115.774 22.3077C114.642 22.7404 113.546 23.0997 112.128 23.0769ZM117.597 12.3077C117.505 10.41 116.557 9.30666 114.862 9.23077C113.554 9.17761 112.072 9.85833 111.216 10.7692C110.359 11.6725 109.669 12.8468 109.393 14.6154C109.218 15.7084 109.346 16.3234 109.393 16.9231C109.485 18.8511 110.415 19.9469 112.128 20C113.251 20.0456 114.052 19.9367 114.862 19.2308C115.673 18.5172 116.327 17.505 116.686 16.1538C117.045 14.7951 117.652 13.4539 117.597 12.3077ZM67.4589 23.0769H72.9285L75.6633 6.15385H59.2544L56.5196 23.0769H61.0776L63.8124 9.23077H71.1053L67.4589 23.0769ZM100.277 6.15385H94.807L85.691 16.9231L88.4258 6.15385H83.8678L80.2213 23.0769H84.7794L93.8954 13.0769L92.0722 23.0769H96.6303L100.277 6.15385ZM138.564 23.0769H143.122L146.769 6.15385H142.211L140.387 13.0769H134.006L134.918 6.15385H130.36L126.713 23.0769H131.271L133.094 16.1538H139.476L138.564 23.0769ZM164.089 16.1538H156.796L155.885 20H164.089V23.0769H150.415L154.061 6.15385H166.824V9.23077H157.708L156.796 13.0769H164.089V16.1538ZM174.117 23.0769L175.94 17.6923H178.675C180.212 17.6923 181.999 17.3557 183.233 16.9231C184.476 16.4904 185.213 15.4351 185.968 14.6154C186.723 13.7956 186.769 12.6543 186.879 11.5385C187.036 9.90649 187.258 8.71705 185.968 7.69231C184.688 6.66757 182.736 6.15385 180.498 6.15385H173.205L169.559 23.0769H174.117ZM178.675 14.6154L175.94 13.8462L176.852 9.23077H180.498C181.079 9.26114 181.971 9.7267 182.321 10C182.681 10.2657 182.247 10.3062 182.321 10.7692C182.45 11.6725 182.046 12.4545 181.41 13.0769C180.774 13.6918 179.872 14.5926 178.675 14.6154Z" fill="white"/>
</svg>
