<svg width="12" height="13" viewBox="0 0 12 13" fill="none" xmlns="http://www.w3.org/2000/svg">
<path d="M10.8125 12.3792L7.3125 8.4125C7 8.69583 6.64062 8.92014 6.23438 9.08542C5.82812 9.25069 5.39583 9.33333 4.9375 9.33333C3.80208 9.33333 2.84125 8.88779 2.055 7.99671C1.26833 7.10515 0.875 6.01597 0.875 4.72917C0.875 3.44236 1.26833 2.35318 2.055 1.46163C2.84125 0.570542 3.80208 0.125 4.9375 0.125C6.07292 0.125 7.03396 0.570542 7.82062 1.46163C8.60687 2.35318 9 3.44236 9 4.72917C9 5.24861 8.92708 5.73854 8.78125 6.19896C8.63542 6.65938 8.4375 7.06667 8.1875 7.42083L11.7031 11.4052C11.8177 11.5351 11.875 11.6944 11.875 11.8833C11.875 12.0722 11.8125 12.2375 11.6875 12.3792C11.5729 12.509 11.4271 12.574 11.25 12.574C11.0729 12.574 10.9271 12.509 10.8125 12.3792ZM4.9375 7.91667C5.71875 7.91667 6.38292 7.60689 6.93 6.98733C7.47667 6.36731 7.75 5.61458 7.75 4.72917C7.75 3.84375 7.47667 3.09103 6.93 2.471C6.38292 1.85144 5.71875 1.54167 4.9375 1.54167C4.15625 1.54167 3.49208 1.85144 2.945 2.471C2.39833 3.09103 2.125 3.84375 2.125 4.72917C2.125 5.61458 2.39833 6.36731 2.945 6.98733C3.49208 7.60689 4.15625 7.91667 4.9375 7.91667Z" fill="#F8F8F8" fill-opacity="0.7"/>
</svg>
